<?xml version="1.0" standalone="no"?>
<!DOCTYPE svg PUBLIC "-//W3C//DTD SVG 20010904//EN"
 "http://www.w3.org/TR/2001/REC-SVG-20010904/DTD/svg10.dtd">
<svg version="1.0" xmlns="http://www.w3.org/2000/svg"
 width="700.000000pt" height="700.000000pt" viewBox="0 0 700.000000 700.000000"
 preserveAspectRatio="xMidYMid meet">
<metadata>
Created by potrace 1.14, written by Peter Selinger 2001-2017
</metadata>
<g transform="translate(0.000000,700.000000) scale(0.100000,-0.100000)"
fill="#000000" stroke="none">
<path d="M3289 6206 c-2 -2 -37 -7 -77 -10 -229 -19 -542 -95 -782 -188 -117
-46 -368 -169 -445 -219 -112 -72 -133 -86 -200 -133 -64 -46 -115 -87 -215
-171 -55 -46 -250 -244 -296 -300 -23 -27 -58 -70 -78 -95 -20 -25 -41 -51
-46 -57 -6 -7 -51 -75 -101 -150 -207 -315 -371 -728 -433 -1088 -42 -247 -44
-316 -42 -1270 l1 -910 28 -80 c41 -120 101 -220 181 -301 117 -117 209 -169
376 -210 42 -10 135 -13 395 -11 372 3 376 4 515 70 187 88 326 251 392 459
l23 73 0 670 c0 369 -4 686 -8 705 -60 269 -245 477 -497 558 -102 33 -136 35
-465 37 l-310 2 3 44 c4 68 48 253 88 375 54 161 112 289 213 468 20 36 93
146 113 171 4 6 29 37 55 70 249 315 566 555 938 710 145 60 309 109 450 134
33 6 71 13 85 16 14 3 50 7 80 10 30 3 78 8 105 10 104 11 366 5 485 -10 791
-98 1483 -600 1820 -1320 72 -153 152 -393 175 -526 3 -19 9 -50 13 -69 4 -19
7 -46 7 -59 l0 -25 -320 -2 c-363 -1 -413 -8 -548 -74 -172 -85 -293 -216
-366 -397 -16 -37 -31 -84 -35 -103 -3 -19 -8 -46 -11 -60 -7 -32 -7 -1253 -1
-1298 44 -301 263 -545 557 -621 66 -17 111 -20 399 -20 292 0 332 2 400 20
209 56 380 193 474 382 86 171 81 103 81 1137 0 910 -2 999 -31 1180 -63 398
-191 740 -419 1118 -37 61 -128 188 -198 275 -307 381 -714 684 -1172 870
-103 42 -301 109 -356 121 -13 3 -42 10 -64 15 -86 21 -295 59 -370 67 -62 6
-560 15 -566 10z m-1472 -3249 c68 -36 66 -21 67 -641 1 -342 -3 -574 -9 -599
-7 -27 -22 -50 -47 -70 l-38 -30 -252 0 c-281 0 -300 3 -338 66 -19 31 -20 55
-20 658 0 344 2 628 5 631 3 3 139 4 303 4 261 -2 301 -4 329 -19z m4043 -606
c0 -698 2 -674 -69 -715 -30 -17 -55 -19 -255 -20 -121 -1 -241 2 -266 6 -51
9 -93 45 -106 91 -5 18 -9 278 -9 598 1 537 2 568 20 595 26 41 36 49 69 60
16 6 161 10 323 10 l293 0 0 -625z"/>
</g>
</svg>
