<svg width="194" height="26" fill="none" xmlns="http://www.w3.org/2000/svg"><path d="M17.692 21h-2.89V10.537h-.085L10.506 20.85H8.465L4.254 10.537h-.086V21h-2.89V5.499h3.76l4.404 10.99h.086l4.405-10.99h3.76V21Zm12.848 0H20.27V5.499h10.27v2.675h-7.025v3.738h6.628v2.492h-6.628v3.91h7.025V21Zm6.102 0V8.174h-4.534V5.499H44.43v2.675h-4.544V21h-3.244Zm19.808 0v-6.531h-6.982V21h-3.244V5.499h3.244v6.295h6.982V5.499h3.244V21H56.45Zm16.092 0h-10.27V5.499h10.27v2.675h-7.025v3.738h6.627v2.492h-6.627v3.91h7.025V21Zm8.314-15.501c2.335 0 4.147.666 5.436 1.998 1.303 1.346 1.955 3.244 1.955 5.693 0 2.457-.652 4.373-1.955 5.748C84.996 20.313 83.184 21 80.856 21h-5.972V5.499h5.972Zm-2.728 12.816h2.342c1.454 0 2.56-.434 3.32-1.3.765-.874 1.148-2.145 1.148-3.814 0-1.618-.386-2.86-1.16-3.727-.773-.867-1.876-1.3-3.308-1.3h-2.342v10.14Zm12.837 2.814c-.48 0-.888-.168-1.225-.505a1.667 1.667 0 0 1-.505-1.225c0-.487.169-.895.505-1.224a1.668 1.668 0 0 1 1.225-.505c.487 0 .895.168 1.224.505.337.33.505.737.505 1.224 0 .48-.168.888-.505 1.225a1.668 1.668 0 0 1-1.224.505ZM111.729 21h-2.889V10.537h-.086l-4.211 10.313h-2.041l-4.211-10.313h-.086V21h-2.89V5.499h3.76l4.404 10.99h.086l4.405-10.99h3.759V21Zm5.823-5.8c0 1.009.283 1.804.848 2.384.573.602 1.375.902 2.407.902 1.024 0 1.822-.3 2.395-.902.566-.58.849-1.375.849-2.385V5.5h3.244v10.023c0 1.718-.587 3.104-1.762 4.157-1.181 1.06-2.757 1.59-4.726 1.59-1.977 0-3.556-.53-4.738-1.59-1.174-1.053-1.761-2.439-1.761-4.157V5.498h3.244v9.7Zm14.878 1.385c.071.63.408 1.142 1.009 1.536.595.387 1.325.58 2.192.58.859 0 1.561-.186 2.105-.558.537-.366.806-.835.806-1.408 0-.501-.201-.906-.602-1.213-.401-.309-1.07-.566-2.008-.774l-2.02-.44c-2.843-.61-4.265-2.052-4.265-4.33 0-1.417.555-2.567 1.665-3.448 1.103-.866 2.525-1.3 4.265-1.3 1.791 0 3.223.427 4.297 1.279 1.06.845 1.604 1.973 1.633 3.384h-3.04a2.006 2.006 0 0 0-.87-1.547c-.523-.373-1.193-.559-2.009-.559-.802 0-1.447.176-1.934.526-.494.351-.741.813-.741 1.386 0 .473.201.86.602 1.16.394.287 1.038.534 1.933.742l1.88.397c1.554.33 2.686.845 3.395 1.547.709.695 1.063 1.633 1.063 2.814 0 1.504-.566 2.697-1.697 3.577-1.132.889-2.661 1.333-4.587 1.333-1.869 0-3.355-.416-4.458-1.246-1.11-.838-1.69-1.984-1.74-3.438h3.126ZM143.784 21V5.499h3.244V21h-3.244Zm12.676.269c-2.263 0-4.05-.713-5.36-2.138-1.318-1.432-1.977-3.395-1.977-5.887 0-2.485.662-4.444 1.987-5.876 1.311-1.425 3.094-2.138 5.35-2.138 1.876 0 3.448.538 4.716 1.612 1.275 1.088 1.973 2.496 2.095 4.221h-3.159c-.15-.952-.558-1.715-1.224-2.288-.673-.573-1.483-.859-2.428-.859-1.225 0-2.202.476-2.933 1.429-.73.966-1.095 2.263-1.095 3.888 0 1.655.361 2.958 1.085 3.91.723.96 1.708 1.44 2.954 1.44.959 0 1.765-.265 2.417-.795.651-.53 1.063-1.253 1.235-2.17h3.158c-.179 1.726-.884 3.101-2.116 4.125-1.232 1.017-2.8 1.526-4.705 1.526Z" fill="#fff"/><path fill-rule="evenodd" clip-rule="evenodd" d="M179.565 3.594a9.62 9.62 0 0 1 6.846 2.793 9.628 9.628 0 0 1 2.845 6.832v5.031a2.438 2.438 0 0 1-2.438 2.438h-1.437a2.437 2.437 0 0 1-2.438-2.438v-3.594a2.438 2.438 0 0 1 2.438-2.437h1.809a7.64 7.64 0 0 0-2.188-4.412 7.63 7.63 0 0 0-5.429-2.213h-.015a7.628 7.628 0 0 0-7.617 6.625h1.809a2.437 2.437 0 0 1 2.437 2.438v3.593a2.437 2.437 0 0 1-2.437 2.438h-1.438a2.437 2.437 0 0 1-2.437-2.438v-5.031c0-1.27.251-2.528.74-3.7a9.612 9.612 0 0 1 5.252-5.213 9.627 9.627 0 0 1 3.698-.712Zm-7.69 10.625v4.031a.438.438 0 0 0 .437.438h1.438a.437.437 0 0 0 .437-.438v-3.594a.437.437 0 0 0-.437-.437h-1.875Zm15.381 0h-1.875a.439.439 0 0 0-.438.437v3.594a.438.438 0 0 0 .438.438h1.437a.44.44 0 0 0 .438-.438v-4.031Zm-7.691-9.625Z" fill="#fff"/></svg>